<svg width="371" height="390" viewBox="0 0 371 390" fill="none" xmlns="http://www.w3.org/2000/svg">
<path fill-rule="evenodd" clip-rule="evenodd" d="M233.135 0C330.698 0 371 110.854 371 208.484C371 297.521 322.111 390 233.135 390C117.778 390 0 323.919 0 208.484C0 86.2983 111.032 0 233.135 0Z" fill="#F2E2D5"/>
<path fill-rule="evenodd" clip-rule="evenodd" d="M127.418 263.721L113.739 265.701C110.13 266.211 106.793 263.685 106.286 260.06L87.9184 128.797C87.4112 125.173 89.9256 121.821 93.5346 121.312L222.593 103.095C226.202 102.585 229.539 105.111 230.046 108.735C230.046 108.735 235.07 136.566 235.474 139.453" fill="white"/>
<path fill-rule="evenodd" clip-rule="evenodd" d="M124.622 257.446L118.525 258.316C115.248 258.784 112.222 256.495 111.767 253.205L95.2775 134.031C94.8221 130.741 97.1096 127.694 100.387 127.226L217.578 110.496C220.855 110.029 223.881 112.317 224.336 115.608L225.753 125.849C225.83 126.403 230.892 163.186 240.94 236.196C241.444 239.863 238.927 243.25 235.318 243.763C235.279 243.768 235.24 243.773 235.202 243.778L124.622 257.446Z" fill="#F2DCCA"/>
<path d="M127.418 263.721L113.739 265.701C110.13 266.211 106.793 263.685 106.286 260.06L87.9183 128.797C87.4111 125.173 89.9256 121.821 93.5346 121.312L222.593 103.095C226.202 102.585 229.539 105.111 230.046 108.735C230.046 108.735 235.07 135.737 235.474 138.624" stroke="#F09476" stroke-width="2.5" stroke-linecap="round"/>
<path d="M142.41 131.764C142.568 130.254 143.921 129.158 145.431 129.317L280.483 143.547C281.994 143.706 283.09 145.06 282.931 146.57L268.537 283.865C268.379 285.375 267.026 286.471 265.515 286.311L130.464 272.081C128.953 271.922 127.857 270.569 128.015 269.058L142.41 131.764Z" fill="white" stroke="#F09476" stroke-width="2.5"/>
<path fill-rule="evenodd" clip-rule="evenodd" d="M154.51 147.055C154.683 145.408 156.158 144.213 157.806 144.387L265.257 155.727C266.905 155.901 268.101 157.378 267.928 159.026L258.36 250.444C258.187 252.092 256.712 253.287 255.064 253.113L147.613 241.772C145.965 241.598 144.769 240.122 144.942 238.474L154.51 147.055Z" fill="white"/>
<path fill-rule="evenodd" clip-rule="evenodd" d="M159.342 216.446L177.381 204.228C179.017 203.12 181.217 203.374 182.56 204.826L196.346 219.729C196.704 220.117 197.302 220.159 197.711 219.827L225.789 196.981C227.638 195.476 230.385 195.915 231.676 197.921L249.747 225.987L252.116 229.957L250.925 244.117C250.878 244.677 250.378 245.088 249.819 245.026L154.368 234.377C153.827 234.316 153.433 233.833 153.482 233.291L154.789 219.039L159.342 216.446Z" fill="#F2DCCA"/>
<path d="M155.753 147.187C155.854 146.225 156.715 145.528 157.676 145.63L265.127 156.971C266.088 157.072 266.786 157.934 266.685 158.895L257.117 250.313C257.016 251.274 256.155 251.971 255.194 251.87L147.743 240.529C146.782 240.428 146.084 239.566 146.185 238.605L155.753 147.187Z" stroke="#F09476" stroke-width="2.5"/>
<ellipse rx="9.91721" ry="9.95772" transform="matrix(0.994476 0.10496 -0.104098 0.994567 179.656 176.732)" fill="#F2DCCA" stroke="#F09476" stroke-width="2.5"/>
<path d="M156.017 219.013C162.523 214.502 175.535 205.478 175.535 205.478C178.235 203.65 181.859 204.068 184.076 206.464L195.932 219.282C196.524 219.922 197.508 219.991 198.184 219.442L223.537 198.812C226.374 196.504 230.537 196.942 232.836 199.791C232.984 199.975 233.123 200.167 233.251 200.366C233.251 200.366 248.074 223.985 251.538 229.504" stroke="#F09476" stroke-width="2.5" stroke-linecap="round"/>
</svg>
